<svg width="361" height="132" viewBox="0 0 361 132" fill="none" xmlns="http://www.w3.org/2000/svg">
<path d="M13.9031 17.0813C9.2552 17.0822 4.78883 17.0822 0.0914528 17.0822C-0.075473 11.498 0.0812712 6.03165 0 0.475131C19.1597 0.475131 38.0813 0.475131 57.1483 0.475131C57.1811 1.06931 57.2377 1.63995 57.2399 2.2108C57.2572 6.68264 57.2182 11.1554 57.3038 15.6258C57.3277 16.8688 56.9125 17.6988 56.0319 18.5264C50.3312 23.8837 44.6726 29.2859 39.0029 34.6761C34.287 39.1596 29.5741 43.6462 24.8626 48.1343C24.6287 48.3571 24.4207 48.607 24.2162 48.8274C24.27 48.9427 24.291 49.0051 24.3261 49.0582C24.3586 49.1074 24.4012 49.1771 24.448 49.1847C24.6421 49.2162 24.8395 49.2441 25.0356 49.244C35.6222 49.2378 46.2088 49.2286 56.7955 49.2221C56.8565 49.2221 56.9176 49.2562 57.1234 49.3176C57.1234 54.811 57.1234 60.3487 57.1234 66.0097C38.1391 66.0097 19.2303 66.0097 0.184959 66.0097C0.13183 65.4821 0.0390941 64.9834 0.0380165 64.4845C0.0280637 59.8811 0.0604145 55.2775 0.014643 50.6745C0.0045638 49.6609 0.345942 48.9923 1.07774 48.2991C11.3396 38.579 21.5672 28.8227 31.8114 19.084C32.322 18.5986 32.9088 18.1932 33.3077 17.873C33.1769 17.4288 33.1687 17.3597 33.1366 17.3044C33.1087 17.2563 33.0552 17.1911 33.0107 17.1893C32.0289 17.1494 31.0468 17.0902 30.0647 17.0883C24.738 17.0777 19.4113 17.0816 13.9031 17.0813Z" fill="#8ED33A"/>
<path d="M133.549 17.3588C133.55 33.6519 133.55 49.7477 133.55 65.981C127.505 65.981 121.615 65.981 115.586 65.981C115.586 63.42 115.586 60.8141 115.586 57.9453C115.079 58.3216 114.736 58.4943 114.502 58.7625C109.971 63.956 104.132 66.4712 97.3848 66.9986C93.7776 67.2806 90.1571 67.2488 86.5837 66.5012C74.4346 63.9594 67.383 56.3188 64.7371 44.4254C64.1569 41.8177 63.8973 39.0905 63.8752 36.4151C63.7799 24.9095 63.8274 13.4028 63.8268 1.89645C63.8268 1.4543 63.8675 1.01217 63.894 0.475131C69.9181 0.475131 75.8155 0.475131 81.9601 0.475131C81.9778 1.14564 82.0118 1.83843 82.0122 2.53123C82.0178 12.7883 82.0071 23.0454 82.0275 33.3025C82.035 37.0513 82.8546 40.5804 84.9526 43.7672C88.4638 49.1008 93.5012 51.3595 99.7396 51.0598C108.036 50.6611 114.183 44.4867 115.215 36.1345C115.383 34.7691 115.447 33.383 115.45 32.0062C115.473 22.2752 115.468 12.5441 115.471 2.81306C115.472 2.09466 115.471 1.37627 115.471 0.514208C121.466 0.514208 127.353 0.514208 133.508 0.514208C133.521 6.04737 133.534 11.6045 133.549 17.3588Z" fill="#8ED33A"/>
<path d="M152.82 73.816C148.304 73.8157 143.984 73.8157 139.571 73.8157C139.571 43.5526 140.061 32.0407 140.061 1.81911C146.048 1.81911 151.98 1.81911 158.019 1.81911C158.019 4.23661 158.019 6.58305 158.019 9.16187C158.388 8.96436 158.624 8.9054 158.76 8.75537C162.678 4.42782 167.708 2.07753 173.309 1.07653C182.827 -0.624581 191.65 1.23545 199.333 7.26544C205.236 11.8987 208.718 18.0809 210.351 25.4049C212.306 34.1792 211.67 42.6953 207.748 50.7755C202.174 62.2592 192.759 67.9451 180.063 68.3474C176.213 68.4693 172.422 68.0408 168.802 66.7644C165.183 65.4888 161.887 63.5866 159.221 60.737C158.975 60.4736 158.671 60.2639 158.142 59.8157C158.142 70.7996 157.651 62.9022 157.651 73.8163C155.998 73.8163 154.507 73.8163 152.82 73.816ZM179.364 16.7827C178.712 16.7017 178.062 16.5824 177.407 16.5462C173.521 16.3313 169.8 16.8692 166.464 19.0507C159.928 23.3232 156.85 30.5019 158.507 38.3669C159.951 45.2242 164.086 49.9652 170.917 51.7987C178.079 53.7209 184.409 51.9489 189.132 46.0753C192.299 42.137 193.371 37.4642 192.893 32.3698C192.169 24.6529 187.062 18.3923 179.364 16.7827Z" fill="#8ED33A"/>
<path d="M265.052 1.21962C271.021 2.71038 276.047 5.53956 280.293 9.77489C284.885 14.3551 287.263 20.0702 288.653 26.2416C289.959 32.0365 289.851 37.8671 288.375 43.6302C286.71 50.1316 283.729 55.9233 278.65 60.4364C273.093 65.3739 266.542 67.966 259.11 68.2493C254.206 68.4362 249.391 67.9816 244.847 65.9237C242.194 64.7221 239.796 63.1261 237.616 61.1989C237.239 60.8652 236.864 60.528 236.151 59.8917C235.988 65.5404 236.086 70.8105 236.066 76.0773C235.556 70.1913 235.572 68.1453 235.572 73.6031C229.593 73.6031 223.712 73.6031 217.804 73.6031C217.436 72.4056 217.767 4.92678 218.168 1.72457C224.041 1.72457 229.931 1.72457 236.078 1.72457C236.078 4.09851 236.078 6.48203 236.078 9.2189C244.377 0.802308 254.177 -0.702228 265.052 1.21962ZM245.67 18.2709C245.331 18.4719 244.991 18.6713 244.654 18.8742C232.958 25.8999 233.737 42.9898 244.03 49.6191C250.899 54.0427 261.292 53.4197 267.153 46.0718C270.754 41.5576 271.655 36.3757 270.814 30.8287C270.248 27.0936 268.548 23.8715 265.883 21.1571C260.588 15.7658 251.624 15.1517 245.67 18.2709Z" fill="#8ED33A"/>
<path d="M308.352 73.6031C311.969 72.4748 314.446 70.3378 315.817 66.9194C316.168 66.0435 316.144 65.3669 315.773 64.5068C311.828 55.3461 307.933 46.1639 304.022 36.9885C299.005 25.219 293.986 13.4508 288.972 1.68C288.771 1.20811 288.618 0.715667 288.375 0.0460485C295.134 0.0460485 301.725 0.0460485 308.591 0.0460485C314.07 13.8272 319.607 27.7553 325.254 41.9594C330.865 27.741 336.331 13.8886 341.811 0C348.2 0 354.487 0 361 0C360.394 1.55198 359.871 2.9515 359.304 4.33306C352.007 22.1222 344.705 39.9092 337.402 57.6956C335.259 62.915 333.148 68.1483 330.945 73.3426C329.267 77.2997 327.102 80.9657 323.93 83.9455C320.271 87.3831 315.865 89.3128 310.973 90.1285C306.027 90.9529 301.038 90.5009 295.956 90.6034C295.956 85.0616 295.956 79.6926 295.956 74.0301C296.531 74.0301 297.157 74.0273 297.784 74.0307C300.15 74.0434 302.517 74.104 304.882 74.052C305.989 74.0276 307.092 73.7872 308.352 73.6031Z" fill="#8ED33A"/>
<path d="M157.339 83.1545C157.339 100.195 171.152 114.009 188.193 114.009C205.233 114.009 219.047 100.195 219.047 83.1545H236.117C236.117 109.622 214.66 131.079 188.193 131.079C161.725 131.079 140.268 109.622 140.268 83.1545H157.339Z" fill="#8ED33A"/>
</svg>
